# This file uses centimeters as units for non-parametric coordinates.

mtllib heart.mtl
g default
v -0.276947 2.725912 -0.224144
v 0.276947 2.725912 -0.224144
v 0.647575 3.054431 0.000000
v 0.276947 2.725912 0.224144
v -0.276947 2.725912 0.224144
v -0.647575 3.054431 0.000000
v -0.507146 2.741204 -0.433013
v 0.507146 2.741204 -0.433013
v 1.144878 2.927120 0.000000
v 0.507146 2.741204 0.433013
v -0.507146 2.741204 0.433013
v -1.144878 2.927120 0.000000
v -0.606176 2.460918 -0.618957
v 0.606176 2.460918 -0.618957
v 1.663832 2.284293 0.000000
v 0.606176 2.460918 0.618957
v -0.606176 2.460918 0.618957
v -1.663832 2.284293 0.000000
v -0.711664 2.018656 -0.741412
v 0.711664 2.018656 -0.741412
v 1.831952 1.917539 0.000000
v 0.711664 2.018656 0.741412
v -0.711664 2.018656 0.741412
v -1.831952 1.917539 0.000000
v -0.777656 1.758819 -0.793540
v 0.777656 1.758819 -0.793540
v 1.795951 1.705750 0.000000
v 0.777656 1.758819 0.793540
v -0.777656 1.758819 0.793540
v -1.796310 1.705750 0.000000
v -0.812971 1.500000 -0.819781
v 0.804500 1.500000 -0.815396
v 1.775130 1.497281 -0.000000
v 0.804501 1.500000 0.815358
v -0.814556 1.500000 0.820544
v -1.775130 1.497281 0.000000
v -0.841116 1.166667 -0.756447
v 0.842759 1.166667 -0.758046
v 1.544522 1.166667 -0.000000
v 0.842908 1.166667 0.757416
v -0.843287 1.166667 0.758129
v -1.544522 1.166667 0.000000
v -0.680158 0.833333 -0.643765
v 0.679891 0.833333 -0.654094
v 1.241865 0.833333 -0.000025
v 0.679892 0.833333 0.653898
v -0.679892 0.833333 0.657036
v -1.244553 0.833333 -0.000027
v -0.477332 0.422805 -0.522469
v 0.486488 0.500000 -0.516558
v 0.866861 0.500000 0.018963
v 0.487124 0.500000 0.531121
v -0.488471 0.518386 0.517561
v -0.867401 0.509115 -0.000043
v -0.282529 0.126193 -0.326447
v 0.281344 0.102511 -0.319703
v 0.552299 0.102511 -0.000004
v 0.282551 0.126193 0.317956
v -0.286022 0.175782 0.325716
v -0.556037 0.185053 -0.000010
v -0.137321 -0.166667 -0.155705
v 0.137321 -0.166667 -0.163407
v 0.274643 -0.166667 -0.000000
v 0.137321 -0.166667 0.144337
v -0.137321 -0.166667 0.144338
v -0.274643 -0.166667 0.000000
v 0.000000 2.500000 0.000000
v -0.000000 -0.500000 0.000000
v -0.000000 1.500000 -0.879812
v 0.000000 1.758819 -0.881229
v 0.000000 2.000000 -0.851474
v 0.000000 2.207107 -0.645927
v 0.000000 2.366025 -0.434460
v 0.000000 2.465926 -0.224144
v 0.000000 2.465926 0.224144
v 0.000000 2.366025 0.434460
v 0.000000 2.207107 0.645927
v 0.000000 2.000000 0.851474
v 0.000000 1.758819 0.881229
v 0.000000 1.500000 0.879812
v 0.004473 1.166667 0.724175
v 0.007357 0.833333 0.515380
v 0.006140 0.509071 0.497532
v 0.003406 0.150694 0.333883
v 0.001891 -0.166667 0.144338
v -0.011705 1.166667 -0.725746
v -0.019293 0.833333 -0.497177
v -0.013193 0.460340 -0.504325
v -0.006477 0.114631 -0.337064
v -0.003224 -0.166667 -0.159832
vt 0.710717 0.661748
vt 0.712729 0.669723
vt 0.717605 0.669969
vt 0.721633 0.666991
vt 0.719682 0.659144
vt 0.714801 0.658785
vt 0.703439 0.657167
vt 0.708699 0.677720
vt 0.719819 0.678755
vt 0.728732 0.671527
vt 0.723735 0.651255
vt 0.712578 0.649906
vt 0.688881 0.648160
vt 0.700666 0.693496
vt 0.724222 0.695828
vt 0.742780 0.680253
vt 0.732000 0.635873
vt 0.708298 0.632393
vt 0.658143 0.629120
vt 0.684121 0.726555
vt 0.733580 0.730766
vt 0.771955 0.698021
vt 0.749730 0.604113
vt 0.699721 0.595662
vt 0.592672 0.587402
vt 0.650920 0.796710
vt 0.754005 0.802683
vt 0.832090 0.734494
vt 0.787840 0.538431
vt 0.682686 0.517018
vt 0.452444 0.492300
vt 0.588129 0.946535
vt 0.799413 0.948752
vt 0.953043 0.808861
vt 0.869578 0.404299
vt 0.650508 0.346574
vt 0.016313 0.001894
vt 0.294800 0.066804
vt 0.454566 0.156307
vt 0.457373 0.337015
vt 0.407601 0.576260
vt 0.331003 0.710489
vt 0.153369 0.734590
vt 0.018370 0.078133
vt 0.220778 0.165974
vt 0.304847 0.243518
vt 0.332113 0.351189
vt 0.293140 0.545276
vt 0.224766 0.634761
vt 0.111934 0.696811
vt 0.009405 0.166842
vt 0.158354 0.241980
vt 0.211897 0.300614
vt 0.236476 0.372982
vt 0.210435 0.518884
vt 0.162971 0.586452
vt 0.098386 0.646205
vt 0.001992 0.256932
vt 0.111905 0.303009
vt 0.147893 0.343998
vt 0.166098 0.393069
vt 0.149845 0.496790
vt 0.118278 0.545928
vt 0.075429 0.589694
vt 0.007174 0.320470
vt 0.078952 0.353166
vt 0.101675 0.379310
vt 0.113542 0.410190
vt 0.104189 0.477282
vt 0.084868 0.510750
vt 0.058721 0.543885
vt 0.019123 0.378252
vt 0.055247 0.397024
vt 0.066348 0.409891
vt 0.072201 0.424909
vt 0.067852 0.458168
vt 0.058297 0.475874
vt 0.044198 0.496249
vt 0.716200 0.664420
vt 0.036298 0.438319
vt 0.172484 0.004017
vt 0.414862 0.775501
vt 0.577437 0.711217
vt 0.651325 0.685189
vt 0.685602 0.673936
vt 0.701542 0.668902
vt 0.708361 0.666832
vt 0.723986 0.662084
vt 0.730663 0.660153
vt 0.746202 0.655692
vt 0.779313 0.646518
vt 0.849324 0.628306
vt 0.457890 0.461377
vt 0.998008 0.593857
vt 0.329732 0.451219
vt 0.235783 0.447038
vt 0.166482 0.445081
vt 0.114210 0.443440
vt 0.072636 0.441209
vt 0.125115 0.111619
vt 0.088826 0.198343
vt 0.062430 0.272911
vt 0.046995 0.333327
vt 0.039419 0.386733
vn -0.000000 0.687373 -0.726304
vn -0.000000 0.874045 -0.485844
vn -0.350872 0.835396 -0.423086
vn 0.231715 0.605221 -0.761588
vn -0.136777 0.990602 -0.000000
vn 0.549152 0.835723 -0.000000
vn -0.350872 0.835396 0.423086
vn 0.231715 0.605221 0.761588
vn 0.000000 0.874045 0.485844
vn 0.000000 0.687373 0.726304
vn 0.350872 0.835396 0.423086
vn 0.136777 0.990602 0.000000
vn -0.549152 0.835723 0.000000
vn -0.231715 0.605221 0.761588
vn 0.350872 0.835396 -0.423086
vn -0.231715 0.605221 -0.761588
vn 0.000000 0.504979 -0.863132
vn 0.321020 0.452446 -0.832009
vn 0.819071 0.573692 0.000000
vn 0.321020 0.452446 0.832009
vn -0.000000 0.504979 0.863132
vn -0.819071 0.573692 0.000000
vn -0.321020 0.452446 0.832009
vn -0.321020 0.452446 -0.832009
vn 0.000000 0.323199 -0.946331
vn 0.395191 0.278817 -0.875263
vn 0.925758 0.378117 0.000000
vn 0.395191 0.278817 0.875263
vn -0.000000 0.323199 0.946331
vn -0.925658 0.378362 -0.000000
vn -0.395171 0.278915 0.875241
vn -0.395171 0.278915 -0.875241
vn 0.000724 0.110789 -0.993844
vn 0.427387 0.096865 -0.898865
vn 0.990105 0.140330 0.000000
vn 0.427383 0.096831 0.898870
vn 0.000856 0.111201 0.993798
vn -0.987774 0.155890 -0.000275
vn -0.426157 0.105973 0.898421
vn -0.426355 0.104579 -0.898490
vn 0.001382 0.049334 -0.998782
vn 0.431123 0.046220 -0.901109
vn 0.997521 0.070369 -0.000001
vn 0.431136 0.046151 0.901106
vn 0.001634 0.050159 0.998740
vn -0.994873 0.101130 -0.000569
vn -0.432333 0.064479 0.899406
vn -0.432128 0.061641 -0.899703
vn -0.016981 -0.309069 -0.950888
vn 0.001003 -0.305312 -0.952252
vn -0.001894 -0.368691 -0.929550
vn 0.038276 -0.366169 -0.929761
vn 0.662742 -0.252884 -0.704857
vn 0.662742 -0.252884 -0.704857
vn 0.657766 -0.372561 -0.654631
vn 0.657165 -0.379025 -0.651517
vn 0.662547 -0.253309 0.704887
vn 0.662547 -0.253309 0.704887
vn 0.657008 -0.379139 0.651609
vn 0.657606 -0.372691 0.654718
vn 0.018096 -0.303988 0.952504
vn 0.001593 -0.307261 0.951624
vn 0.001620 -0.354856 0.934920
vn -0.036471 -0.348783 0.936493
vn -0.663426 -0.267414 0.698824
vn -0.663427 -0.267414 0.698824
vn -0.657909 -0.379201 0.650663
vn -0.657312 -0.385287 0.647684
vn -0.661871 -0.268588 -0.699848
vn -0.661871 -0.268588 -0.699848
vn -0.654352 -0.386333 -0.650054
vn -0.654892 -0.381433 -0.652399
vn 0.004198 -0.290712 -0.956802
vn 0.121915 -0.326729 -0.937222
vn 0.623832 -0.571221 -0.533423
vn 0.623354 -0.573340 -0.531706
vn 0.627551 -0.561525 0.539323
vn 0.628057 -0.558327 0.542047
vn -0.003235 -0.307870 0.951423
vn -0.117090 -0.333443 0.935471
vn -0.621640 -0.570025 0.537248
vn -0.620690 -0.573139 0.535029
vn -0.636767 -0.557042 -0.533134
vn -0.636048 -0.554659 -0.536466
vn 0.022810 -0.267050 -0.963413
vn 0.111064 -0.229363 -0.966984
vn 0.630385 -0.600729 -0.491671
vn 0.629348 -0.602190 -0.491211
vn 0.624434 -0.596286 0.504505
vn 0.624701 -0.595813 0.504732
vn -0.016670 -0.307902 0.951272
vn -0.110862 -0.267250 0.957229
vn -0.606962 -0.630885 0.483302
vn -0.606342 -0.631370 0.483447
vn -0.647181 -0.612803 -0.453464
vn -0.646995 -0.608618 -0.459326
vn 0.010913 -0.481574 -0.876338
vn 0.007954 -0.496480 -0.868012
vn 0.650499 -0.565233 -0.507309
vn 0.651203 -0.564443 -0.507286
vn 0.622562 -0.585870 0.518819
vn 0.619786 -0.587275 0.520550
vn -0.024976 -0.468148 0.883297
vn -0.027780 -0.467303 0.883661
vn -0.629148 -0.595620 0.499408
vn -0.628913 -0.596534 0.498614
vn -0.652262 -0.627304 -0.425492
vn -0.651597 -0.630987 -0.421041
vn -0.018874 -0.499742 -0.865969
vn -0.041607 -0.506616 -0.861167
vn 0.611785 -0.599271 -0.516327
vn 0.610955 -0.600675 -0.515678
vn 0.590413 -0.587354 0.553559
vn 0.590557 -0.587049 0.553729
vn -0.016968 -0.479059 0.877619
vn 0.002215 -0.490155 0.871632
vn -0.637979 -0.534916 0.553939
vn -0.638078 -0.535058 0.553687
vn -0.656017 -0.559705 -0.506332
vn -0.655706 -0.559089 -0.507414
vn -0.000000 1.000000 0.000000
vn -0.025232 -0.432422 -0.901318
vn 0.647515 -0.533506 -0.544147
vn 0.622091 -0.512558 0.591851
vn 0.000000 -0.397360 0.917663
vn -0.622091 -0.512558 0.591851
vn -0.638009 -0.525674 -0.562682
vn -0.014474 -0.310364 0.950508
vn 0.038473 -0.350233 0.935872
vn 0.112573 -0.342160 0.932874
vn 0.087095 -0.285767 0.954333
vn -0.016210 -0.464773 0.885281
vn -0.036984 -0.478800 0.877145
vn 0.018454 -0.301567 -0.953266
vn -0.040079 -0.357494 -0.933055
vn -0.117976 -0.339947 -0.933015
vn -0.087661 -0.239257 -0.966991
vn 0.019162 -0.464429 -0.885403
vn 0.005238 -0.502454 -0.864588
g pCone1
usemtl initialShadingGroup
f 73/86/1 74/87/2 2/2/3 8/8/4
f 2/2/3 3/3/5 9/9/6 8/8/4
f 3/3/5 4/4/7 10/10/8 9/9/6
f 4/4/7 75/88/9 76/89/10 10/10/8
f 5/5/11 6/6/12 12/12/13 11/11/14
f 6/6/12 1/1/15 7/7/16 12/12/13
f 72/85/17 73/86/1 8/8/4 14/14/18
f 8/8/4 9/9/6 15/15/19 14/14/18
f 9/9/6 10/10/8 16/16/20 15/15/19
f 10/10/8 76/89/10 77/90/21 16/16/20
f 11/11/14 12/12/13 18/18/22 17/17/23
f 12/12/13 7/7/16 13/13/24 18/18/22
f 71/84/25 72/85/17 14/14/18 20/20/26
f 14/14/18 15/15/19 21/21/27 20/20/26
f 15/15/19 16/16/20 22/22/28 21/21/27
f 16/16/20 77/90/21 78/91/29 22/22/28
f 17/17/23 18/18/22 24/24/30 23/23/31
f 18/18/22 13/13/24 19/19/32 24/24/30
f 70/83/33 71/84/25 20/20/26 26/26/34
f 20/20/26 21/21/27 27/27/35 26/26/34
f 21/21/27 22/22/28 28/28/36 27/27/35
f 22/22/28 78/91/29 79/92/37 28/28/36
f 23/23/31 24/24/30 30/30/38 29/29/39
f 24/24/30 19/19/32 25/25/40 30/30/38
f 69/82/41 70/83/33 26/26/34 32/32/42
f 26/26/34 27/27/35 33/33/43 32/32/42
f 27/27/35 28/28/36 34/34/44 33/33/43
f 28/28/36 79/92/37 80/94/45 34/34/44
f 29/29/39 30/30/38 36/36/46 35/35/47
f 30/30/38 25/25/40 31/31/48 36/36/46
f 31/37/49 69/81/50 86/100/51 37/44/52
f 32/38/53 33/39/54 39/46/55 38/45/56
f 33/39/57 34/40/58 40/47/59 39/46/60
f 34/40/61 80/93/62 81/95/63 40/47/64
f 35/41/65 36/42/66 42/49/67 41/48/68
f 36/42/69 31/43/70 37/50/71 42/49/72
f 37/44/52 86/100/51 87/101/73 43/51/74
f 38/45/56 39/46/55 45/53/75 44/52/76
f 39/46/60 40/47/59 46/54/77 45/53/78
f 40/47/64 81/95/63 82/96/79 46/54/80
f 41/48/68 42/49/67 48/56/81 47/55/82
f 42/49/72 37/50/71 43/57/83 48/56/84
f 43/51/74 87/101/73 88/102/85 49/58/86
f 44/52/76 45/53/75 51/60/87 50/59/88
f 45/53/78 46/54/77 52/61/89 51/60/90
f 46/54/80 82/96/79 83/97/91 52/61/92
f 47/55/82 48/56/81 54/63/93 53/62/94
f 48/56/84 43/57/83 49/64/95 54/63/96
f 49/58/86 88/102/85 89/103/97 55/65/98
f 50/59/88 51/60/87 57/67/99 56/66/100
f 51/60/90 52/61/89 58/68/101 57/67/102
f 52/61/92 83/97/91 84/98/103 58/68/104
f 53/62/94 54/63/93 60/70/105 59/69/106
f 54/63/96 49/64/95 55/71/107 60/70/108
f 55/65/98 89/103/97 90/104/109 61/72/110
f 56/66/100 57/67/99 63/74/111 62/73/112
f 57/67/102 58/68/101 64/75/113 63/74/114
f 58/68/104 84/98/103 85/99/115 64/75/116
f 59/69/106 60/70/105 66/77/117 65/76/118
f 60/70/108 55/71/107 61/78/119 66/77/120
f 2/2/3 74/87/2 1/1/15 67/79/121
f 3/3/5 2/2/3 67/79/121
f 4/4/7 3/3/5 67/79/121
f 5/5/11 75/88/9 4/4/7 67/79/121
f 6/6/12 5/5/11 67/79/121
f 1/1/15 6/6/12 67/79/121
f 61/72/110 90/104/109 68/80/122
f 62/73/112 63/74/111 68/80/123
f 63/74/114 64/75/113 68/80/124
f 64/75/116 85/99/115 68/80/125
f 65/76/118 66/77/117 68/80/126
f 66/77/120 61/78/119 68/80/127
f 25/25/40 70/83/33 69/82/41 31/31/48
f 19/19/32 71/84/25 70/83/33 25/25/40
f 13/13/24 72/85/17 71/84/25 19/19/32
f 7/7/16 73/86/1 72/85/17 13/13/24
f 1/1/15 74/87/2 73/86/1 7/7/16
f 76/89/10 75/88/9 5/5/11 11/11/14
f 77/90/21 76/89/10 11/11/14 17/17/23
f 78/91/29 77/90/21 17/17/23 23/23/31
f 79/92/37 78/91/29 23/23/31 29/29/39
f 80/94/45 79/92/37 29/29/39 35/35/47
f 81/95/63 80/93/62 35/41/128 41/48/129
f 82/96/79 81/95/63 41/48/129 47/55/130
f 83/97/91 82/96/79 47/55/130 53/62/131
f 84/98/103 83/97/91 53/62/131 59/69/132
f 85/99/115 84/98/103 59/69/132 65/76/133
f 68/80/125 85/99/115 65/76/133
f 86/100/51 69/81/50 32/38/134 38/45/135
f 87/101/73 86/100/51 38/45/135 44/52/136
f 88/102/85 87/101/73 44/52/136 50/59/137
f 89/103/97 88/102/85 50/59/137 56/66/138
f 90/104/109 89/103/97 56/66/138 62/73/139
f 68/80/122 90/104/109 62/73/139
